<svg xmlns="http://www.w3.org/2000/svg" xmlns:xlink="http://www.w3.org/1999/xlink" width="48" zoomAndPan="magnify" viewBox="0 0 36 36.000001" height="48" preserveAspectRatio="xMidYMid meet" version="1.0"><defs><clipPath id="7be3f689d2"><path d="M 0.488281 0 L 35.511719 0 L 35.511719 35.027344 L 0.488281 35.027344 Z M 0.488281 0 " clip-rule="nonzero"/></clipPath><clipPath id="28e55338f0"><path d="M 9.242188 0 L 26.757812 0 C 29.078125 0 31.304688 0.921875 32.949219 2.566406 C 34.589844 4.207031 35.511719 6.433594 35.511719 8.757812 L 35.511719 26.269531 C 35.511719 28.59375 34.589844 30.820312 32.949219 32.460938 C 31.304688 34.105469 29.078125 35.027344 26.757812 35.027344 L 9.242188 35.027344 C 6.921875 35.027344 4.695312 34.105469 3.050781 32.460938 C 1.410156 30.820312 0.488281 28.59375 0.488281 26.269531 L 0.488281 8.757812 C 0.488281 6.433594 1.410156 4.207031 3.050781 2.566406 C 4.695312 0.921875 6.921875 0 9.242188 0 Z M 9.242188 0 " clip-rule="nonzero"/></clipPath><clipPath id="dc62cc8266"><path d="M 9.984375 7.796875 L 26.039062 7.796875 L 26.039062 27.351562 L 9.984375 27.351562 Z M 9.984375 7.796875 " clip-rule="nonzero"/></clipPath></defs><g clip-path="url(#7be3f689d2)"><g clip-path="url(#28e55338f0)"><path fill="#38b6ff" d="M 0.488281 0 L 35.511719 0 L 35.511719 35.027344 L 0.488281 35.027344 Z M 0.488281 0 " fill-opacity="1" fill-rule="nonzero"/></g></g><g clip-path="url(#dc62cc8266)"><path fill="#040606" d="M 16.277344 9.136719 L 19.757812 9.136719 L 19.757812 14.796875 L 16.277344 14.796875 Z M 25.320312 23.585938 L 20.875 17.355469 L 20.875 9.136719 L 20.890625 9.136719 C 21.257812 9.136719 21.558594 8.835938 21.558594 8.464844 C 21.558594 8.097656 21.257812 7.796875 20.890625 7.796875 L 15.140625 7.796875 C 14.773438 7.796875 14.472656 8.097656 14.472656 8.464844 C 14.472656 8.835938 14.773438 9.136719 15.140625 9.136719 L 15.15625 9.136719 L 15.15625 17.351562 L 10.710938 23.585938 C 9.226562 25.667969 10.089844 27.351562 12.636719 27.351562 L 23.398438 27.351562 C 25.945312 27.351562 26.808594 25.667969 25.320312 23.585938 " fill-opacity="1" fill-rule="nonzero"/></g></svg>