<svg xmlns="http://www.w3.org/2000/svg" xmlns:xlink="http://www.w3.org/1999/xlink" width="48" zoomAndPan="magnify" viewBox="0 0 36 36.000001" height="48" preserveAspectRatio="xMidYMid meet" version="1.0"><defs><clipPath id="e63176cdb9"><path d="M 0.488281 0 L 35.511719 0 L 35.511719 35.027344 L 0.488281 35.027344 Z M 0.488281 0 " clip-rule="nonzero"/></clipPath><clipPath id="81ca9e3359"><path d="M 9.242188 0 L 26.757812 0 C 29.078125 0 31.304688 0.921875 32.949219 2.566406 C 34.589844 4.207031 35.511719 6.433594 35.511719 8.757812 L 35.511719 26.269531 C 35.511719 28.59375 34.589844 30.820312 32.949219 32.460938 C 31.304688 34.105469 29.078125 35.027344 26.757812 35.027344 L 9.242188 35.027344 C 6.921875 35.027344 4.695312 34.105469 3.050781 32.460938 C 1.410156 30.820312 0.488281 28.59375 0.488281 26.269531 L 0.488281 8.757812 C 0.488281 6.433594 1.410156 4.207031 3.050781 2.566406 C 4.695312 0.921875 6.921875 0 9.242188 0 Z M 9.242188 0 " clip-rule="nonzero"/></clipPath><clipPath id="bb1e2f7aae"><path d="M 13 7.296875 L 23 7.296875 L 23 17 L 13 17 Z M 13 7.296875 " clip-rule="nonzero"/></clipPath><clipPath id="bcdc6cec9d"><path d="M 10.421875 16 L 25.746094 16 L 25.746094 27.730469 L 10.421875 27.730469 Z M 10.421875 16 " clip-rule="nonzero"/></clipPath></defs><g clip-path="url(#e63176cdb9)"><g clip-path="url(#81ca9e3359)"><path fill="#8c52ff" d="M 0.488281 0 L 35.511719 0 L 35.511719 35.027344 L 0.488281 35.027344 Z M 0.488281 0 " fill-opacity="1" fill-rule="nonzero"/></g></g><g clip-path="url(#bb1e2f7aae)"><path fill="#000000" d="M 22.496094 11.664062 C 22.496094 9.257812 20.515625 7.300781 18.082031 7.300781 C 15.652344 7.300781 13.671875 9.257812 13.671875 11.664062 C 13.671875 14.0625 15.652344 16.019531 18.082031 16.019531 C 20.515625 16.019531 22.496094 14.0625 22.496094 11.664062 Z M 22.496094 11.664062 " fill-opacity="1" fill-rule="nonzero"/></g><g clip-path="url(#bcdc6cec9d)"><path fill="#000000" d="M 10.421875 24.101562 L 10.421875 25.417969 C 10.421875 26.691406 11.46875 27.726562 12.753906 27.726562 L 23.414062 27.726562 C 24.699219 27.726562 25.746094 26.691406 25.746094 25.417969 L 25.746094 24.101562 C 25.746094 19.925781 22.308594 16.523438 18.082031 16.523438 C 13.859375 16.523438 10.421875 19.925781 10.421875 24.101562 Z M 10.421875 24.101562 " fill-opacity="1" fill-rule="nonzero"/></g></svg>