<svg xmlns="http://www.w3.org/2000/svg" xmlns:xlink="http://www.w3.org/1999/xlink" width="48" zoomAndPan="magnify" viewBox="0 0 36 36.000001" height="48" preserveAspectRatio="xMidYMid meet" version="1.0"><defs><clipPath id="0b0fd2d641"><path d="M 0.488281 0 L 35.511719 0 L 35.511719 35.027344 L 0.488281 35.027344 Z M 0.488281 0 " clip-rule="nonzero"/></clipPath><clipPath id="347ababccb"><path d="M 9.242188 0 L 26.757812 0 C 29.078125 0 31.304688 0.921875 32.949219 2.566406 C 34.589844 4.207031 35.511719 6.433594 35.511719 8.757812 L 35.511719 26.269531 C 35.511719 28.59375 34.589844 30.820312 32.949219 32.460938 C 31.304688 34.105469 29.078125 35.027344 26.757812 35.027344 L 9.242188 35.027344 C 6.921875 35.027344 4.695312 34.105469 3.050781 32.460938 C 1.410156 30.820312 0.488281 28.59375 0.488281 26.269531 L 0.488281 8.757812 C 0.488281 6.433594 1.410156 4.207031 3.050781 2.566406 C 4.695312 0.921875 6.921875 0 9.242188 0 Z M 9.242188 0 " clip-rule="nonzero"/></clipPath><clipPath id="fbc1945506"><path d="M 7.785156 7.152344 L 28.203125 7.152344 L 28.203125 27.582031 L 7.785156 27.582031 Z M 7.785156 7.152344 " clip-rule="nonzero"/></clipPath></defs><g clip-path="url(#0b0fd2d641)"><g clip-path="url(#347ababccb)"><path fill="#ff66c4" d="M 0.488281 0 L 35.511719 0 L 35.511719 35.027344 L 0.488281 35.027344 Z M 0.488281 0 " fill-opacity="1" fill-rule="nonzero"/></g></g><g clip-path="url(#fbc1945506)"><path fill="#100f0d" d="M 17.929688 13.480469 C 20.054688 13.441406 21.804688 15.132812 21.84375 17.257812 C 21.84375 17.296875 21.84375 17.332031 21.84375 17.371094 C 21.871094 19.492188 20.167969 21.234375 18.042969 21.257812 C 15.917969 21.28125 14.179688 19.582031 14.15625 17.457031 C 14.15625 17.425781 14.15625 17.398438 14.15625 17.371094 C 14.128906 15.257812 15.816406 13.519531 17.929688 13.480469 Z M 18.339844 7.160156 C 17.769531 7.140625 17.191406 7.167969 16.625 7.246094 C 16.421875 7.273438 16.257812 7.414062 16.199219 7.605469 L 15.632812 9.449219 C 15.582031 9.605469 15.464844 9.730469 15.308594 9.785156 C 15.042969 9.882812 14.78125 9.988281 14.527344 10.109375 C 14.378906 10.183594 14.203125 10.179688 14.058594 10.101562 L 12.355469 9.199219 C 12.175781 9.101562 11.960938 9.121094 11.800781 9.246094 C 11.070312 9.796875 10.421875 10.449219 9.867188 11.175781 C 9.742188 11.339844 9.726562 11.554688 9.820312 11.734375 L 10.722656 13.4375 C 10.800781 13.578125 10.808594 13.753906 10.742188 13.902344 C 10.617188 14.160156 10.511719 14.417969 10.414062 14.6875 C 10.363281 14.84375 10.234375 14.960938 10.078125 15.007812 L 8.238281 15.578125 C 8.042969 15.636719 7.902344 15.800781 7.875 16 C 7.753906 16.910156 7.753906 17.828125 7.875 18.738281 C 7.902344 18.9375 8.042969 19.105469 8.238281 19.160156 L 10.078125 19.730469 C 10.234375 19.777344 10.363281 19.894531 10.414062 20.050781 C 10.511719 20.320312 10.617188 20.582031 10.742188 20.835938 C 10.808594 20.984375 10.800781 21.160156 10.722656 21.300781 L 9.820312 23.003906 C 9.726562 23.183594 9.742188 23.402344 9.867188 23.5625 C 10.421875 24.289062 11.070312 24.9375 11.800781 25.492188 C 11.960938 25.617188 12.175781 25.632812 12.355469 25.542969 L 14.058594 24.636719 C 14.203125 24.558594 14.378906 24.554688 14.527344 24.628906 C 14.78125 24.75 15.042969 24.855469 15.308594 24.953125 C 15.464844 25.007812 15.582031 25.132812 15.632812 25.289062 L 16.199219 27.128906 C 16.257812 27.324219 16.421875 27.464844 16.625 27.492188 C 17.53125 27.613281 18.453125 27.613281 19.359375 27.492188 C 19.558594 27.464844 19.726562 27.324219 19.785156 27.128906 L 20.351562 25.289062 C 20.398438 25.132812 20.519531 25.007812 20.671875 24.953125 C 20.941406 24.855469 21.203125 24.75 21.457031 24.628906 C 21.605469 24.554688 21.777344 24.558594 21.921875 24.636719 L 23.625 25.542969 C 23.804688 25.632812 24.023438 25.617188 24.183594 25.492188 C 24.914062 24.9375 25.5625 24.289062 26.117188 23.5625 C 26.242188 23.402344 26.257812 23.183594 26.164062 23.003906 L 25.261719 21.300781 C 25.179688 21.160156 25.175781 20.984375 25.242188 20.835938 C 25.363281 20.582031 25.472656 20.320312 25.566406 20.050781 C 25.621094 19.894531 25.746094 19.777344 25.90625 19.730469 L 27.75 19.160156 C 27.941406 19.101562 28.082031 18.9375 28.109375 18.738281 C 28.230469 17.828125 28.230469 16.910156 28.109375 16 C 28.082031 15.800781 27.941406 15.636719 27.75 15.578125 L 25.90625 15.007812 C 25.746094 14.960938 25.621094 14.84375 25.566406 14.6875 C 25.472656 14.417969 25.363281 14.160156 25.242188 13.902344 C 25.175781 13.753906 25.179688 13.578125 25.261719 13.4375 L 26.164062 11.734375 C 26.257812 11.554688 26.242188 11.339844 26.117188 11.175781 C 25.5625 10.449219 24.914062 9.796875 24.183594 9.246094 C 24.023438 9.121094 23.804688 9.101562 23.625 9.199219 L 21.921875 10.101562 C 21.777344 10.179688 21.605469 10.183594 21.457031 10.113281 C 21.203125 9.988281 20.941406 9.882812 20.671875 9.785156 C 20.519531 9.734375 20.398438 9.609375 20.351562 9.449219 L 19.785156 7.609375 C 19.726562 7.414062 19.558594 7.273438 19.359375 7.246094 C 19.019531 7.199219 18.683594 7.171875 18.339844 7.160156 " fill-opacity="1" fill-rule="nonzero"/></g></svg>