<svg xmlns="http://www.w3.org/2000/svg" xmlns:xlink="http://www.w3.org/1999/xlink" width="190" zoomAndPan="magnify" viewBox="0 0 142.5 30.000001" height="40" preserveAspectRatio="xMidYMid meet" version="1.0"><defs><g/><clipPath id="755102d969"><path d="M 2.054688 0 L 31.089844 0 L 31.089844 29.03125 L 2.054688 29.03125 Z M 2.054688 0 " clip-rule="nonzero"/></clipPath><clipPath id="5a479ec77d"><path d="M 128 9 L 139.960938 9 L 139.960938 20 L 128 20 Z M 128 9 " clip-rule="nonzero"/></clipPath></defs><path fill="#56aeff" d="M 16.574219 17.050781 C 17.96875 17.050781 19.097656 15.914062 19.097656 14.515625 L 19.097656 0.21875 C 20.167969 0.40625 21.21875 0.714844 22.226562 1.140625 C 22.511719 1.261719 22.800781 1.390625 23.066406 1.527344 L 23.066406 14.515625 C 23.066406 15.390625 22.894531 16.242188 22.554688 17.046875 C 22.226562 17.820312 21.757812 18.515625 21.160156 19.109375 C 20.566406 19.707031 19.871094 20.175781 19.097656 20.503906 C 18.296875 20.84375 17.445312 21.015625 16.570312 21.015625 C 15.691406 21.015625 14.839844 20.84375 14.039062 20.503906 C 13.265625 20.175781 12.574219 19.707031 11.976562 19.109375 C 11.382812 18.515625 10.914062 17.820312 10.585938 17.046875 C 10.25 16.246094 10.078125 15.394531 10.078125 14.519531 C 10.078125 13.640625 10.253906 12.792969 10.589844 11.988281 C 10.917969 11.214844 11.390625 10.519531 11.984375 9.925781 C 12.578125 9.332031 13.273438 8.863281 14.050781 8.535156 L 14.050781 14.519531 C 14.050781 15.914062 15.179688 17.050781 16.574219 17.050781 Z M 16.574219 17.050781 " fill-opacity="1" fill-rule="nonzero"/><g clip-path="url(#755102d969)"><path fill="#004aad" d="M 31.089844 14.515625 C 31.089844 16.476562 30.707031 18.378906 29.949219 20.167969 C 29.21875 21.898438 28.171875 23.449219 26.839844 24.78125 C 25.507812 26.113281 23.953125 27.160156 22.226562 27.890625 C 20.433594 28.648438 18.53125 29.035156 16.574219 29.035156 C 14.613281 29.035156 12.714844 28.648438 10.921875 27.890625 C 9.195312 27.160156 7.640625 26.113281 6.308594 24.78125 C 4.976562 23.449219 3.929688 21.898438 3.199219 20.167969 C 2.441406 18.378906 2.054688 16.476562 2.054688 14.515625 C 2.054688 12.558594 2.441406 10.65625 3.199219 8.867188 C 3.929688 7.136719 4.976562 5.585938 6.308594 4.25 C 7.640625 2.917969 9.191406 1.871094 10.921875 1.140625 C 12.710938 0.382812 14.613281 0 16.570312 0 C 16.789062 0 17.03125 0.00390625 17.21875 0.015625 L 17.21875 3.984375 C 17.03125 3.96875 16.789062 3.964844 16.574219 3.964844 C 10.753906 3.964844 6.019531 8.699219 6.019531 14.515625 C 6.019531 20.335938 10.757812 25.070312 16.574219 25.070312 C 22.394531 25.070312 27.128906 20.335938 27.128906 14.515625 C 27.128906 12.101562 26.316406 9.871094 24.945312 8.089844 L 24.945312 2.648438 C 25.617188 3.125 26.25 3.660156 26.84375 4.253906 C 28.175781 5.585938 29.21875 7.136719 29.949219 8.867188 C 30.707031 10.65625 31.089844 12.558594 31.089844 14.515625 Z M 31.089844 14.515625 " fill-opacity="1" fill-rule="nonzero"/></g><g fill="#ffffff" fill-opacity="1"><g transform="translate(41.085674, 19.233873)"><g><path d="M 7.703125 -15.171875 L 7.703125 -4.28125 C 7.703125 -2.800781 7.296875 -1.671875 6.484375 -0.890625 C 5.671875 -0.109375 4.503906 0.28125 2.984375 0.28125 C 2.578125 0.28125 2.175781 0.226562 1.78125 0.125 C 1.394531 0.03125 1.066406 -0.0820312 0.796875 -0.21875 C 0.523438 -0.363281 0.28125 -0.507812 0.0625 -0.65625 C -0.144531 -0.800781 -0.300781 -0.925781 -0.40625 -1.03125 L -0.5625 -1.171875 L 0.53125 -4.0625 C 1.257812 -3.375 1.914062 -3.03125 2.5 -3.03125 C 3.03125 -3.03125 3.453125 -3.203125 3.765625 -3.546875 C 4.085938 -3.898438 4.25 -4.441406 4.25 -5.171875 L 4.25 -15.171875 Z M 7.703125 -15.171875 "/></g></g></g><g fill="#ffffff" fill-opacity="1"><g transform="translate(48.180574, 19.233873)"><g><path d="M 1.984375 -1.109375 C 0.941406 -2.046875 0.421875 -3.242188 0.421875 -4.703125 C 0.421875 -6.160156 0.96875 -7.359375 2.0625 -8.296875 C 3.15625 -9.234375 4.503906 -9.703125 6.109375 -9.703125 C 7.691406 -9.703125 9.023438 -9.226562 10.109375 -8.28125 C 11.191406 -7.34375 11.734375 -6.148438 11.734375 -4.703125 C 11.734375 -3.253906 11.203125 -2.0625 10.140625 -1.125 C 9.078125 -0.1875 7.734375 0.28125 6.109375 0.28125 C 4.410156 0.28125 3.035156 -0.179688 1.984375 -1.109375 Z M 4.515625 -6.3125 C 4.085938 -5.894531 3.875 -5.359375 3.875 -4.703125 C 3.875 -4.054688 4.078125 -3.523438 4.484375 -3.109375 C 4.890625 -2.703125 5.425781 -2.5 6.09375 -2.5 C 6.726562 -2.5 7.25 -2.707031 7.65625 -3.125 C 8.070312 -3.539062 8.28125 -4.066406 8.28125 -4.703125 C 8.28125 -5.359375 8.066406 -5.894531 7.640625 -6.3125 C 7.210938 -6.726562 6.695312 -6.9375 6.09375 -6.9375 C 5.46875 -6.9375 4.941406 -6.726562 4.515625 -6.3125 Z M 4.515625 -6.3125 "/></g></g></g><g fill="#ffffff" fill-opacity="1"><g transform="translate(58.805076, 19.233873)"><g><path d="M 10.640625 -4.265625 L 3.8125 -4.265625 C 3.8125 -3.609375 4.023438 -3.117188 4.453125 -2.796875 C 4.878906 -2.472656 5.34375 -2.3125 5.84375 -2.3125 C 6.375 -2.3125 6.789062 -2.378906 7.09375 -2.515625 C 7.40625 -2.660156 7.753906 -2.941406 8.140625 -3.359375 L 10.5 -2.1875 C 9.519531 -0.539062 7.890625 0.28125 5.609375 0.28125 C 4.179688 0.28125 2.957031 -0.203125 1.9375 -1.171875 C 0.925781 -2.148438 0.421875 -3.328125 0.421875 -4.703125 C 0.421875 -6.078125 0.925781 -7.253906 1.9375 -8.234375 C 2.957031 -9.210938 4.179688 -9.703125 5.609375 -9.703125 C 7.109375 -9.703125 8.328125 -9.269531 9.265625 -8.40625 C 10.203125 -7.539062 10.671875 -6.304688 10.671875 -4.703125 C 10.671875 -4.484375 10.660156 -4.335938 10.640625 -4.265625 Z M 3.90625 -6.0625 L 7.484375 -6.0625 C 7.410156 -6.550781 7.21875 -6.925781 6.90625 -7.1875 C 6.59375 -7.457031 6.191406 -7.59375 5.703125 -7.59375 C 5.160156 -7.59375 4.726562 -7.453125 4.40625 -7.171875 C 4.09375 -6.890625 3.925781 -6.519531 3.90625 -6.0625 Z M 3.90625 -6.0625 "/></g></g></g><g fill="#ffffff" fill-opacity="1"><g transform="translate(68.363339, 19.233873)"><g/></g></g><g fill="#ffffff" fill-opacity="1"><g transform="translate(71.8551, 19.233873)"><g><path d="M 8.8125 -15.171875 L 14.9375 0 L 11.21875 0 L 10.09375 -3.03125 L 4.328125 -3.03125 L 3.203125 0 L -0.515625 0 L 5.609375 -15.171875 Z M 8.921875 -6.0625 L 7.234375 -10.484375 L 7.1875 -10.484375 L 5.5 -6.0625 Z M 8.921875 -6.0625 "/></g></g></g><g fill="#ffffff" fill-opacity="1"><g transform="translate(84.740759, 19.233873)"><g><path d="M 0.6875 2.3125 L 3.34375 1.015625 C 3.832031 1.816406 4.6875 2.21875 5.90625 2.21875 C 6.46875 2.21875 6.988281 2.035156 7.46875 1.671875 C 7.957031 1.316406 8.203125 0.765625 8.203125 0.015625 L 8.203125 -0.6875 C 7.628906 -0.0390625 6.597656 0.28125 5.109375 0.28125 C 3.753906 0.28125 2.632812 -0.195312 1.75 -1.15625 C 0.863281 -2.125 0.421875 -3.304688 0.421875 -4.703125 C 0.421875 -6.097656 0.863281 -7.28125 1.75 -8.25 C 2.632812 -9.21875 3.753906 -9.703125 5.109375 -9.703125 C 6.328125 -9.703125 7.335938 -9.332031 8.140625 -8.59375 L 8.203125 -8.59375 L 8.203125 -9.4375 L 11.453125 -9.4375 L 11.453125 0.25 C 11.453125 1.789062 10.941406 2.976562 9.921875 3.8125 C 8.910156 4.644531 7.570312 5.0625 5.90625 5.0625 C 3.207031 5.0625 1.46875 4.144531 0.6875 2.3125 Z M 4.515625 -6.3125 C 4.085938 -5.894531 3.875 -5.359375 3.875 -4.703125 C 3.875 -4.054688 4.078125 -3.523438 4.484375 -3.109375 C 4.890625 -2.703125 5.425781 -2.5 6.09375 -2.5 C 6.726562 -2.5 7.25 -2.707031 7.65625 -3.125 C 8.070312 -3.539062 8.28125 -4.066406 8.28125 -4.703125 C 8.28125 -5.359375 8.066406 -5.894531 7.640625 -6.3125 C 7.210938 -6.726562 6.695312 -6.9375 6.09375 -6.9375 C 5.46875 -6.9375 4.941406 -6.726562 4.515625 -6.3125 Z M 4.515625 -6.3125 "/></g></g></g><g fill="#ffffff" fill-opacity="1"><g transform="translate(95.769695, 19.233873)"><g><path d="M 4.171875 -9.4375 L 4.171875 -4.953125 C 4.171875 -4.015625 4.3125 -3.347656 4.59375 -2.953125 C 4.875 -2.566406 5.351562 -2.375 6.03125 -2.375 C 6.707031 -2.375 7.1875 -2.566406 7.46875 -2.953125 C 7.75 -3.347656 7.890625 -4.015625 7.890625 -4.953125 L 7.890625 -9.4375 L 11.140625 -9.4375 L 11.140625 -4.15625 C 11.140625 -2.582031 10.734375 -1.445312 9.921875 -0.75 C 9.109375 -0.0625 7.8125 0.28125 6.03125 0.28125 C 4.25 0.28125 2.953125 -0.0625 2.140625 -0.75 C 1.328125 -1.445312 0.921875 -2.582031 0.921875 -4.15625 L 0.921875 -9.4375 Z M 4.171875 -9.4375 "/></g></g></g><g fill="#ffffff" fill-opacity="1"><g transform="translate(106.302289, 19.233873)"><g><path d="M 1.75 -1.15625 C 0.863281 -2.125 0.421875 -3.304688 0.421875 -4.703125 C 0.421875 -6.097656 0.863281 -7.28125 1.75 -8.25 C 2.632812 -9.21875 3.753906 -9.703125 5.109375 -9.703125 C 6.359375 -9.703125 7.390625 -9.3125 8.203125 -8.53125 L 8.203125 -9.4375 L 11.453125 -9.4375 L 11.453125 0 L 8.234375 0 L 8.234375 -1.0625 L 8.203125 -1.0625 C 7.390625 -0.164062 6.359375 0.28125 5.109375 0.28125 C 3.753906 0.28125 2.632812 -0.195312 1.75 -1.15625 Z M 4.515625 -6.3125 C 4.085938 -5.894531 3.875 -5.359375 3.875 -4.703125 C 3.875 -4.054688 4.078125 -3.523438 4.484375 -3.109375 C 4.890625 -2.703125 5.425781 -2.5 6.09375 -2.5 C 6.726562 -2.5 7.25 -2.707031 7.65625 -3.125 C 8.070312 -3.539062 8.28125 -4.066406 8.28125 -4.703125 C 8.28125 -5.359375 8.066406 -5.894531 7.640625 -6.3125 C 7.210938 -6.726562 6.695312 -6.9375 6.09375 -6.9375 C 5.46875 -6.9375 4.941406 -6.726562 4.515625 -6.3125 Z M 4.515625 -6.3125 "/></g></g></g><g fill="#ffffff" fill-opacity="1"><g transform="translate(117.331222, 19.233873)"><g><path d="M 1.75 -1.15625 C 0.863281 -2.125 0.421875 -3.304688 0.421875 -4.703125 C 0.421875 -6.097656 0.863281 -7.28125 1.75 -8.25 C 2.632812 -9.21875 3.753906 -9.703125 5.109375 -9.703125 C 6.359375 -9.703125 7.390625 -9.3125 8.203125 -8.53125 L 8.203125 -15.8125 L 11.453125 -15.8125 L 11.453125 0 L 8.234375 0 L 8.234375 -1.0625 L 8.203125 -1.0625 C 7.390625 -0.164062 6.359375 0.28125 5.109375 0.28125 C 3.753906 0.28125 2.632812 -0.195312 1.75 -1.15625 Z M 4.515625 -6.3125 C 4.085938 -5.894531 3.875 -5.359375 3.875 -4.703125 C 3.875 -4.054688 4.078125 -3.523438 4.484375 -3.109375 C 4.890625 -2.703125 5.425781 -2.5 6.09375 -2.5 C 6.726562 -2.5 7.25 -2.707031 7.65625 -3.125 C 8.070312 -3.539062 8.28125 -4.066406 8.28125 -4.703125 C 8.28125 -5.359375 8.066406 -5.894531 7.640625 -6.3125 C 7.210938 -6.726562 6.695312 -6.9375 6.09375 -6.9375 C 5.46875 -6.9375 4.941406 -6.726562 4.515625 -6.3125 Z M 4.515625 -6.3125 "/></g></g></g><g clip-path="url(#5a479ec77d)"><g fill="#ffffff" fill-opacity="1"><g transform="translate(128.360155, 19.233873)"><g><path d="M 1.984375 -1.109375 C 0.941406 -2.046875 0.421875 -3.242188 0.421875 -4.703125 C 0.421875 -6.160156 0.96875 -7.359375 2.0625 -8.296875 C 3.15625 -9.234375 4.503906 -9.703125 6.109375 -9.703125 C 7.691406 -9.703125 9.023438 -9.226562 10.109375 -8.28125 C 11.191406 -7.34375 11.734375 -6.148438 11.734375 -4.703125 C 11.734375 -3.253906 11.203125 -2.0625 10.140625 -1.125 C 9.078125 -0.1875 7.734375 0.28125 6.109375 0.28125 C 4.410156 0.28125 3.035156 -0.179688 1.984375 -1.109375 Z M 4.515625 -6.3125 C 4.085938 -5.894531 3.875 -5.359375 3.875 -4.703125 C 3.875 -4.054688 4.078125 -3.523438 4.484375 -3.109375 C 4.890625 -2.703125 5.425781 -2.5 6.09375 -2.5 C 6.726562 -2.5 7.25 -2.707031 7.65625 -3.125 C 8.070312 -3.539062 8.28125 -4.066406 8.28125 -4.703125 C 8.28125 -5.359375 8.066406 -5.894531 7.640625 -6.3125 C 7.210938 -6.726562 6.695312 -6.9375 6.09375 -6.9375 C 5.46875 -6.9375 4.941406 -6.726562 4.515625 -6.3125 Z M 4.515625 -6.3125 "/></g></g></g></g></svg>