<svg xmlns="http://www.w3.org/2000/svg" xmlns:xlink="http://www.w3.org/1999/xlink" width="200" zoomAndPan="magnify" viewBox="0 0 150 149.999998" height="200" preserveAspectRatio="xMidYMid meet" version="1.0"><defs><g/></defs><g fill="#000000" fill-opacity="1"><g transform="translate(72.893551, 140.399994)"><g><path d="M 2.109375 0.0625 C 1.796875 0.0625 1.515625 -0.0078125 1.265625 -0.15625 C 1.015625 -0.3125 0.8125 -0.550781 0.65625 -0.875 C 0.507812 -1.207031 0.4375 -1.628906 0.4375 -2.140625 C 0.4375 -2.648438 0.507812 -3.066406 0.65625 -3.390625 C 0.8125 -3.722656 1.015625 -3.960938 1.265625 -4.109375 C 1.515625 -4.265625 1.796875 -4.34375 2.109375 -4.34375 C 2.421875 -4.34375 2.703125 -4.265625 2.953125 -4.109375 C 3.203125 -3.960938 3.398438 -3.722656 3.546875 -3.390625 C 3.691406 -3.066406 3.765625 -2.648438 3.765625 -2.140625 C 3.765625 -1.628906 3.691406 -1.207031 3.546875 -0.875 C 3.398438 -0.550781 3.203125 -0.3125 2.953125 -0.15625 C 2.703125 -0.0078125 2.421875 0.0625 2.109375 0.0625 Z M 2.109375 -0.40625 C 2.484375 -0.40625 2.765625 -0.535156 2.953125 -0.796875 C 3.148438 -1.066406 3.25 -1.515625 3.25 -2.140625 C 3.25 -2.765625 3.148438 -3.207031 2.953125 -3.46875 C 2.765625 -3.738281 2.484375 -3.875 2.109375 -3.875 C 1.859375 -3.875 1.648438 -3.816406 1.484375 -3.703125 C 1.316406 -3.597656 1.1875 -3.414062 1.09375 -3.15625 C 1.007812 -2.894531 0.96875 -2.554688 0.96875 -2.140625 C 0.96875 -1.722656 1.007812 -1.382812 1.09375 -1.125 C 1.1875 -0.875 1.316406 -0.691406 1.484375 -0.578125 C 1.648438 -0.460938 1.859375 -0.40625 2.109375 -0.40625 Z M 2.109375 -0.40625 "/></g></g></g><path fill="#56aeff" d="M 75.007812 88.089844 C 82.210938 88.089844 88.039062 82.222656 88.039062 75.003906 L 88.039062 1.128906 C 93.585938 2.097656 99 3.691406 104.214844 5.898438 C 105.679688 6.515625 107.171875 7.179688 108.558594 7.890625 L 108.558594 75.003906 C 108.558594 79.527344 107.65625 83.925781 105.90625 88.066406 C 104.21875 92.066406 101.785156 95.65625 98.710938 98.734375 C 95.632812 101.816406 92.046875 104.238281 88.046875 105.929688 C 83.90625 107.683594 79.511719 108.574219 74.980469 108.574219 C 70.453125 108.574219 66.058594 107.683594 61.914062 105.929688 C 57.917969 104.238281 54.332031 101.820312 51.257812 98.742188 C 48.179688 95.660156 45.765625 92.074219 44.078125 88.074219 C 42.328125 83.929688 41.445312 79.535156 41.445312 75.007812 C 41.445312 70.484375 42.34375 66.085938 44.097656 61.941406 C 45.789062 57.945312 48.222656 54.355469 51.300781 51.277344 C 54.371094 48.207031 57.953125 45.792969 61.972656 44.105469 L 61.972656 75.015625 C 61.972656 75.015625 61.972656 75.007812 61.972656 75.007812 C 61.96875 82.222656 67.800781 88.089844 75.007812 88.089844 Z M 75.007812 88.089844 " fill-opacity="1" fill-rule="nonzero"/><path fill="#004aad" d="M 150.007812 75.003906 C 150.007812 85.121094 148.023438 94.949219 144.113281 104.199219 C 140.332031 113.132812 134.925781 121.152344 128.042969 128.039062 C 121.15625 134.925781 113.136719 140.332031 104.203125 144.109375 C 94.949219 148.019531 85.125 150.007812 75.007812 150.007812 C 64.886719 150.007812 55.0625 148.019531 45.808594 144.109375 C 36.875 140.332031 28.855469 134.921875 21.96875 128.039062 C 15.082031 121.15625 9.679688 113.132812 5.902344 104.199219 C 1.984375 94.949219 0 85.125 0 75.003906 C 0 64.878906 1.984375 55.058594 5.898438 45.804688 C 9.675781 36.871094 15.082031 28.855469 21.96875 21.96875 C 28.851562 15.082031 36.871094 9.675781 45.800781 5.898438 C 55.058594 1.984375 64.878906 0 74.996094 0 C 76.113281 0 77.363281 0.0234375 78.332031 0.0742188 L 78.332031 20.578125 C 77.363281 20.511719 76.125 20.476562 75 20.476562 C 44.9375 20.476562 20.484375 44.9375 20.484375 75.003906 C 20.484375 105.066406 44.949219 129.527344 75.015625 129.527344 C 105.082031 129.527344 129.550781 105.066406 129.550781 75.003906 C 129.550781 62.519531 125.335938 51 118.265625 41.796875 L 118.265625 13.691406 C 121.730469 16.152344 125.007812 18.914062 128.0625 21.96875 C 134.945312 28.855469 140.332031 36.875 144.109375 45.808594 C 148.023438 55.058594 150.007812 64.882812 150.007812 75.003906 Z M 150.007812 75.003906 " fill-opacity="1" fill-rule="nonzero"/></svg>